<svg xmlns="http://www.w3.org/2000/svg" viewBox="0 0 32 32"><path d="M9,4A5,5,0,0,0,5.47,5.46,1,1,0,0,0,6.88,6.88a3.08,3.08,0,0,1,4.24,0,1,1,0,0,0,.71.29,1,1,0,0,0,.71-.29,1,1,0,0,0,0-1.42A5,5,0,0,0,9,4Z"/><path d="M30.2,26.33l-9.78-9.78a2.79,2.79,0,0,0-3-.56l-2.1-2.09A7.92,7.92,0,0,0,17,9a8,8,0,1,0-8,8,7.92,7.92,0,0,0,4.9-1.69L16,17.4a2.73,2.73,0,0,0,.57,3l9.78,9.78a2.7,2.7,0,0,0,1.93.8,2.74,2.74,0,0,0,1.94-4.67ZM3,9a6,6,0,1,1,6,6A6,6,0,0,1,3,9ZM28.78,28.78a.75.75,0,0,1-1,0L18,19a.74.74,0,1,1,1-1l9.78,9.77A.74.74,0,0,1,28.78,28.78Z"/></svg>